# xmcd
#
# Track frame offsets: 
#        150
#        1907
#        3761
#        5387
#        7887
#        9665
#        12166
#        13759
#        15879
#        17564
#        19423
#        22030
#        23880
#        25922
#        27061
#        28675
#        29969
#        31825
#        33067
#        34473
#        36742
#        39009
#        40971
#        43460
#        44964
#        46852
#        50135
#        53162
#        56210
#        61434
#        64515
#        67607
#        70656
#        75592
#        80975
#
# Disc length: 1353 seconds
#
# Revision: 0
# Processed by: cddbd v1.5.1PL2 Copyright (c) Steve Scherf et al.
# Submitted via: ExactAudioCopy v0.95b4
#
DISCID=ba054723
DTITLE=Young Guitar Magazine - Larry Carlton Playing Method -Young Gui
DTITLE=tar Premium No.14-
DYEAR=2000
DGENRE=Fusion
TTITLE0=RIFF exercise #1
TTITLE1=RIFF exercise #2
TTITLE2=RIFF exerciese #3 (Normal Tempo)
TTITLE3=RIFF exercise #3 (Slow Tempo)
TTITLE4=SOLO exercise #1 (Normal Tempo)
TTITLE5=SOLO exercise #1 (Slow Tempo)
TTITLE6=SOLO exercise #2 (Normal Tempo)
TTITLE7=SOLO exercise #2 (Slow Tempo)
TTITLE8=SOLO exercise #3
TTITLE9=SOLO exercise #4 (Normal Tempo)
TTITLE10=SOLO exercise #4 (Slow Tempo)
TTITLE11=SOLO exercise #5 (Normal Tempo)
TTITLE12=SOLO exercise #5 (Slow Tempo)
TTITLE13=SOLO exercise #6 (Normal Tempo)
TTITLE14=SOLO exercise #6 (Slow Tempo)
TTITLE15=SOLO exercise #7 (Normal Tempo)
TTITLE16=SOLO exercise #7 (Slow Tempo)
TTITLE17=SOLO exercise #8 (Normal Tempo)
TTITLE18=SOLO exercise #8 (Slow Tempo)
TTITLE19=SOLO exercise #9
TTITLE20=SOLO exercise #10
TTITLE21=SOLO exercise #11 (Normal Tempo)
TTITLE22=SOLO exercise #11 (Slow Tempo)
TTITLE23=SOLO exercise #12 (Normal Tempo)
TTITLE24=SOLO exercise #12 (Slow Tempo)
TTITLE25=SOLO exercise #13
TTITLE26=LEAD exercise #1
TTITLE27=LEAD exercise #2
TTITLE28=LEAD exercise #3
TTITLE29=LEAD exercise #4
TTITLE30=LEAD exercise #5
TTITLE31=LEAD exercise #6
TTITLE32=LEAD exercise #7
TTITLE33=KARAOKE for LEAD exercise #4,#5
TTITLE34=KARAOKE for LEAD exercise #1,#2,#3,#6,#7
EXTD=
EXTT0=
EXTT1=
EXTT2=
EXTT3=
EXTT4=
EXTT5=
EXTT6=
EXTT7=
EXTT8=
EXTT9=
EXTT10=
EXTT11=
EXTT12=
EXTT13=
EXTT14=
EXTT15=
EXTT16=
EXTT17=
EXTT18=
EXTT19=
EXTT20=
EXTT21=
EXTT22=
EXTT23=
EXTT24=
EXTT25=
EXTT26=
EXTT27=
EXTT28=
EXTT29=
EXTT30=
EXTT31=
EXTT32=
EXTT33=
EXTT34=
PLAYORDER=
